<?xml version="1.0" standalone="no"?><svg xmlns="http://www.w3.org/2000/svg" viewBox="0 0 1440 320"><path fill="#ffffff" fill-opacity="1" d="M0,224L40,213.3C80,203,160,181,240,192C320,203,400,245,480,245.3C560,245,640,203,720,181.3C800,160,880,160,960,181.3C1040,203,1120,245,1200,272C1280,299,1360,309,1400,314.7L1440,320L1440,320L1400,320C1360,320,1280,320,1200,320C1120,320,1040,320,960,320C880,320,800,320,720,320C640,320,560,320,480,320C400,320,320,320,240,320C160,320,80,320,40,320L0,320Z"></path></svg>