<?xml version="1.0" standalone="no"?>
<!DOCTYPE svg PUBLIC "-//W3C//DTD SVG 20010904//EN"
 "http://www.w3.org/TR/2001/REC-SVG-20010904/DTD/svg10.dtd">
<svg version="1.0" xmlns="http://www.w3.org/2000/svg"
 width="1404.000000pt" height="1404.000000pt" viewBox="0 0 1404.000000 1404.000000"
 preserveAspectRatio="xMidYMid meet">
<metadata>
Created by potrace 1.14, written by Peter Selinger 2001-2017
</metadata>
<g transform="translate(0.000000,1404.000000) scale(0.100000,-0.100000)"
fill="#000000" stroke="none">
<path d="M5400 9043 c-1 -3098 -2 -3173 -25 -3323 -2 -14 -6 -45 -9 -70 -12
-108 -48 -294 -74 -380 -9 -30 -16 -57 -17 -60 -1 -3 -11 -34 -22 -70 -126
-390 -397 -708 -746 -874 -140 -66 -334 -130 -461 -152 -17 -2 -38 -7 -46 -9
-8 -3 -33 -7 -55 -10 -22 -3 -49 -7 -61 -9 -40 -8 -174 -22 -303 -32 -103 -7
-490 -8 -591 0 -128 10 -224 18 -240 21 -8 1 -44 6 -80 10 -36 4 -74 9 -85 11
-11 2 -40 7 -65 10 -25 3 -52 7 -61 10 -9 3 -32 7 -50 9 -29 4 -261 56 -309
70 -63 17 -80 17 -80 1 0 -9 -22 -108 -49 -219 -156 -634 -168 -687 -159 -687
3 0 56 -13 119 -29 63 -17 128 -32 144 -34 17 -3 64 -12 105 -21 115 -23 183
-34 350 -56 150 -19 223 -27 315 -35 33 -3 96 -8 140 -12 109 -10 776 -10 900
0 108 8 190 16 245 22 19 3 76 9 125 15 50 6 104 13 120 16 17 3 42 7 58 9 15
3 42 7 60 10 93 16 245 49 347 76 696 183 1190 499 1546 988 87 121 178 286
252 456 55 128 137 381 156 485 2 14 11 57 19 95 20 92 48 279 64 430 4 39 9
1455 10 3148 l3 3077 -745 0 -745 0 0 -2887z"/>
<path d="M7143 8843 c2 -1699 6 -3110 10 -3137 3 -27 8 -65 11 -85 3 -20 8
-61 11 -91 3 -30 8 -66 10 -80 3 -14 7 -41 10 -60 38 -239 125 -539 209 -722
14 -31 26 -59 26 -61 0 -2 27 -55 61 -117 187 -348 435 -619 774 -844 255
-169 693 -349 1029 -422 120 -26 329 -64 376 -70 25 -2 54 -6 65 -9 11 -2 45
-7 75 -10 30 -3 71 -8 90 -10 19 -3 64 -7 100 -10 36 -2 103 -8 150 -12 47 -4
247 -7 445 -7 316 -1 442 4 600 19 22 3 67 7 100 10 90 9 141 15 245 30 14 2
45 7 70 10 133 18 382 67 513 102 l98 26 -4 31 c-3 17 -15 69 -27 116 -27 108
-21 85 -70 290 -23 96 -43 178 -45 181 -2 3 -6 16 -9 30 -3 13 -9 44 -15 69
-6 25 -18 80 -28 123 -9 42 -22 77 -28 77 -5 0 -52 -11 -102 -25 -51 -13 -103
-27 -115 -29 -13 -3 -48 -10 -78 -16 -30 -6 -64 -13 -75 -14 -11 -2 -33 -6
-50 -9 -28 -6 -55 -10 -142 -22 -21 -3 -51 -7 -68 -10 -16 -2 -57 -7 -90 -10
-33 -3 -76 -8 -95 -10 -143 -17 -591 -24 -731 -11 -35 3 -95 8 -134 11 -61 5
-303 41 -345 51 -8 2 -35 8 -60 15 -25 6 -56 13 -69 15 -14 3 -28 7 -33 10 -4
3 -16 7 -25 9 -94 19 -321 124 -445 207 -92 62 -258 216 -314 293 -16 22 -31
42 -35 45 -26 23 -137 234 -179 341 -32 80 -83 245 -96 314 -2 11 -8 40 -14
65 -11 52 -28 149 -34 200 -20 161 -27 253 -31 395 -3 66 -4 1422 -5 3013 l0
2892 -745 0 -745 0 3 -3087z"/>
</g>
</svg>
